<svg width="19" height="22" viewBox="0 0 19 22" fill="none" xmlns="http://www.w3.org/2000/svg">
<path d="M16.635 5.6759C16.6191 5.55425 16.5595 5.44264 16.4674 5.36211C16.3752 5.28158 16.257 5.23769 16.1349 5.23873H13.3797V4.23375C13.3797 3.13296 12.9445 2.07724 12.1699 1.29886C11.3953 0.520481 10.3447 0.0831909 9.24927 0.0831909C8.15382 0.0831909 7.10324 0.520481 6.32864 1.29886C5.55405 2.07724 5.11888 3.13296 5.11888 4.23375V5.23873H2.35863C2.23654 5.23769 2.11828 5.28158 2.02617 5.36211C1.93406 5.44264 1.87445 5.55425 1.85858 5.6759L0.00340665 19.816C-0.00603417 19.8892 0.000722106 19.9637 0.0231944 20.034C0.0456666 20.1044 0.083302 20.1689 0.133419 20.223C0.343438 20.4491 0.573459 20.6802 0.823483 20.9064C0.91519 20.9901 1.03458 21.0367 1.15851 21.037H17.34C17.4639 21.0367 17.5833 20.9901 17.6751 20.9064C17.9201 20.6802 18.1751 20.4491 18.3651 20.223C18.4152 20.1689 18.4529 20.1044 18.4753 20.034C18.4978 19.9637 18.5046 19.8892 18.4951 19.816L16.635 5.6759ZM6.13398 4.2237C6.13398 3.38944 6.46377 2.58935 7.05082 1.99944C7.63786 1.40953 8.43406 1.07812 9.26427 1.07812C10.0945 1.07812 10.8907 1.40953 11.4777 1.99944C12.0648 2.58935 12.3946 3.38944 12.3946 4.2237V5.22868H6.11898L6.13398 4.2237ZM17.135 20.032H1.35353L1.0235 19.7104L2.79367 6.24371H15.6999L17.47 19.7104L17.135 20.032Z" fill="#E5E5E5"/>
</svg>
