<svg width="19" height="21" viewBox="0 0 19 21" fill="none" xmlns="http://www.w3.org/2000/svg">
<path d="M16.6341 5.57981C16.6183 5.45844 16.5587 5.34709 16.4666 5.26674C16.3745 5.1864 16.2562 5.14262 16.1341 5.14366H13.3791V4.14099C13.3791 3.04273 12.944 1.98946 12.1695 1.21287C11.395 0.436282 10.3445 0 9.24914 0C8.1538 0 7.10331 0.436282 6.32879 1.21287C5.55426 1.98946 5.11914 3.04273 5.11914 4.14099V5.14366H2.35914C2.23706 5.14262 2.11882 5.1864 2.02672 5.26674C1.93461 5.34709 1.875 5.45844 1.85914 5.57981L0.00413869 19.6873C-0.00530126 19.7604 0.00145439 19.8347 0.0239246 19.9049C0.0463948 19.975 0.0840266 20.0394 0.134139 20.0933C0.344139 20.3189 0.574138 20.5496 0.824138 20.7752C0.915838 20.8587 1.03522 20.9052 1.15914 20.9055H17.3391C17.4631 20.9052 17.5824 20.8587 17.6741 20.7752C17.9191 20.5496 18.1741 20.3189 18.3641 20.0933C18.4142 20.0394 18.4519 19.975 18.4744 19.9049C18.4968 19.8347 18.5036 19.7604 18.4941 19.6873L16.6341 5.57981ZM6.13414 4.13097C6.13414 3.29863 6.46391 2.50038 7.05089 1.91183C7.63788 1.32328 8.43401 0.992636 9.26414 0.992636C10.0943 0.992636 10.8904 1.32328 11.4774 1.91183C12.0644 2.50038 12.3941 3.29863 12.3941 4.13097V5.13363H6.11914L6.13414 4.13097ZM17.1341 19.9028H1.35414L1.02414 19.582L2.79414 6.14632H15.6991L17.4691 19.582L17.1341 19.9028Z" fill="black"/>
</svg>
