<svg width="18" height="32" viewBox="0 0 18 32" fill="none" xmlns="http://www.w3.org/2000/svg">
<path d="M4.806 18.0626C4.68585 18.0626 2.04255 18.0626 0.84105 18.0626C0.20025 18.0626 0 17.8223 0 17.2215C0 15.6195 0 13.9775 0 12.3755C0 11.7347 0.2403 11.5344 0.84105 11.5344H4.806C4.806 11.4143 4.806 9.09136 4.806 8.01001C4.806 6.40801 5.08635 4.88611 5.88735 3.48435C6.7284 2.04255 7.9299 1.08135 9.4518 0.520651C10.4531 0.1602 11.4543 0 12.5357 0H16.4606C17.0213 0 17.2616 0.2403 17.2616 0.801001V5.36671C17.2616 5.92741 17.0213 6.16771 16.4606 6.16771C15.3792 6.16771 14.2979 6.16771 13.2165 6.20776C12.1352 6.20776 11.5745 6.72841 11.5745 7.84981C11.5344 9.05131 11.5745 10.2128 11.5745 11.4543H16.2203C16.8611 11.4543 17.1014 11.6946 17.1014 12.3354V17.1815C17.1014 17.8223 16.9011 18.0225 16.2203 18.0225C14.7785 18.0225 11.6946 18.0225 11.5745 18.0225V31.0788C11.5745 31.7597 11.3742 32 10.6533 32C8.9712 32 7.32915 32 5.64705 32C5.0463 32 4.806 31.7597 4.806 31.159C4.806 26.9537 4.806 18.1827 4.806 18.0626Z" fill="#F16B20"/>
</svg>
