<svg width="16" height="17" viewBox="0 0 16 17" fill="none" xmlns="http://www.w3.org/2000/svg">
<g opacity="0.7" clip-path="url(#clip0)">
<path d="M7.998 15.4155C7.90867 15.4155 7.82267 15.3795 7.76067 15.3162L1.222 8.66886C-0.407333 7.01353 -0.407333 4.31886 1.222 2.66219C2.01267 1.85819 3.06533 1.41553 4.184 1.41553C5.30333 1.41553 6.35533 1.85819 7.146 2.66219L7.998 3.52886L8.85 2.66219C9.64067 1.85819 10.6927 1.41553 11.812 1.41553C12.9307 1.41553 13.9827 1.85819 14.7733 2.66219C16.4027 4.31819 16.4027 7.01286 14.7733 8.66886L8.23533 15.3162C8.17333 15.3795 8.08733 15.4155 7.998 15.4155ZM4.184 2.08219C3.24533 2.08219 2.362 2.45486 1.69733 3.12953C0.322 4.52819 0.322 6.80353 1.69733 8.20086L7.998 14.6069L14.2987 8.20153C15.674 6.80353 15.674 4.52819 14.2987 3.13019C13.634 2.45486 12.7507 2.08219 11.812 2.08219C10.8727 2.08219 9.99 2.45486 9.32533 3.12953L8.23533 4.23753C8.11 4.36486 7.88533 4.36486 7.76 4.23753L6.67 3.12953C6.006 2.45486 5.12333 2.08219 4.184 2.08219Z" fill="#FF1629"/>
<g clip-path="url(#clip1)">
<path d="M7.952 3.32383C8.59776 1.79327 10.073 0.723831 11.7888 0.723831C14.1002 0.723831 15.7648 2.70111 15.9741 5.05759C15.9741 5.05759 16.087 5.64255 15.8384 6.69567C15.4998 8.12991 14.704 9.40415 13.631 10.3766L7.952 15.4435L2.36864 10.3763C1.29568 9.40415 0.499841 8.12959 0.161281 6.69535C-0.0873593 5.64223 0.0256007 5.05727 0.0256007 5.05727C0.234881 2.70079 1.89952 0.723511 4.21088 0.723511C5.92704 0.723511 7.30624 1.79327 7.952 3.32383Z" fill="#FF1629"/>
</g>
</g>
<defs>
<clipPath id="clip0">
<rect width="16" height="16" fill="white" transform="translate(0 0.0834961)"/>
</clipPath>
<clipPath id="clip1">
<rect width="16" height="16" fill="white" transform="translate(0 0.0834961)"/>
</clipPath>
</defs>
</svg>
