<svg width="34" height="10" viewBox="0 0 34 10" fill="none" xmlns="http://www.w3.org/2000/svg">
<path d="M30.3009 0H23.6638C23.9955 1.77145 25.3514 3.19213 27.104 3.65531C27.5108 3.76329 27.9305 3.81795 28.352 3.81787H33.4674C33.513 3.6066 33.5338 3.39126 33.5338 3.1678C33.5338 1.41797 32.0867 0 30.3009 0V0Z" fill="#C4C4C4"/>
<path d="M9.03654 1.77044e-07V0.00406255C9.03239 0.00406255 7.72625 0 7.37795 1.22267C7.05867 2.34379 6.15889 5.43769 6.13401 5.52299H5.88522C5.88522 5.52299 4.96471 2.36003 4.64128 1.21861C4.29298 -0.00406237 2.98269 1.77044e-07 2.98269 1.77044e-07H0V9.29932H2.98408V3.77628H3.23286L4.97438 9.29927H7.04623L8.78775 3.78034H9.03654V9.29927H12.0206V1.77044e-07H9.03654V1.77044e-07ZM19.9376 1.77044e-07C19.9376 1.77044e-07 19.0627 0.0771779 18.6522 0.974926L16.5389 5.52299H16.2901V1.77044e-07H13.306V9.29932H16.1242C16.1242 9.29932 17.0406 9.21808 17.4512 8.32443L19.523 3.77632H19.7718V9.29932H22.7559V1.77044e-07H19.9376ZM24.0827 4.22315V9.29932H27.0668V6.3354H30.2997C31.7095 6.3354 32.9023 5.45394 33.3459 4.2245H24.0827V4.22315V4.22315Z" fill="#A2A2A2"/>
</svg>
