<svg width="18" height="19" viewBox="0 0 18 19" fill="none" xmlns="http://www.w3.org/2000/svg">
<g clip-path="url(#clip0)">
<path d="M17.571 17.471L12.5213 12.2055C13.8093 10.9103 14.6073 9.12482 14.6073 7.15565C14.6073 3.20982 11.406 0 7.47064 0C3.53528 0 0.333984 3.20982 0.333984 7.15565C0.333984 11.1015 3.53528 14.3113 7.47064 14.3113C9.19805 14.3113 10.7834 13.6922 12.0191 12.6648L17.081 17.9433C17.1476 18.0132 17.2366 18.0479 17.326 18.0479C17.411 18.0479 17.4956 18.0162 17.5615 17.9528C17.6968 17.8223 17.7009 17.6066 17.571 17.471ZM7.47064 13.6298C3.91013 13.6298 1.01367 10.7256 1.01367 7.15565C1.01367 3.58566 3.91013 0.68149 7.47064 0.68149C11.0311 0.68149 13.9276 3.58566 13.9276 7.15565C13.9276 10.7256 11.0308 13.6298 7.47064 13.6298Z" fill="black"/>
</g>
<defs>
<clipPath id="clip0">
<rect width="18" height="18.0479" fill="white"/>
</clipPath>
</defs>
</svg>
