<svg width="16" height="21" viewBox="0 0 16 21" fill="none" xmlns="http://www.w3.org/2000/svg">
<path d="M16 20.0533H15V15.5413C15 14.8765 14.7366 14.2389 14.2678 13.7688C13.7989 13.2987 13.163 13.0346 12.5 13.0346H3.5C2.83696 13.0346 2.20107 13.2987 1.73223 13.7688C1.26339 14.2389 1 14.8765 1 15.5413V20.0533H0V15.5413C0 14.6106 0.368749 13.718 1.02513 13.0598C1.6815 12.4017 2.57174 12.032 3.5 12.032H12.5C13.4283 12.032 14.3185 12.4017 14.9749 13.0598C15.6313 13.718 16 14.6106 16 15.5413V20.0533Z" fill="black"/>
<path d="M8 11.0293C6.9122 11.0293 5.84884 10.7059 4.94437 10.0999C4.0399 9.49394 3.33495 8.63267 2.91866 7.625C2.50238 6.61733 2.39346 5.50852 2.60568 4.43879C2.8179 3.36905 3.34173 2.38644 4.11091 1.6152C4.8801 0.843967 5.86011 0.318748 6.927 0.105965C7.9939 -0.106819 9.09977 0.00238943 10.1048 0.419779C11.1098 0.837169 11.9687 1.54399 12.5731 2.45087C13.1774 3.35775 13.5 4.42395 13.5 5.51464C13.5 6.97721 12.9205 8.37989 11.8891 9.41408C10.8576 10.4483 9.45869 11.0293 8 11.0293ZM8 1.00266C7.10999 1.00266 6.23996 1.26729 5.49994 1.76307C4.75991 2.25885 4.18314 2.96353 3.84254 3.78798C3.50195 4.61244 3.41283 5.51965 3.58647 6.39489C3.7601 7.27012 4.18869 8.07408 4.81802 8.70509C5.44736 9.3361 6.24918 9.76583 7.12209 9.93992C7.99501 10.114 8.89981 10.0247 9.72208 9.68317C10.5443 9.34167 11.2471 8.76335 11.7416 8.02136C12.2361 7.27937 12.5 6.40703 12.5 5.51464C12.5 4.31799 12.0259 3.17035 11.182 2.32419C10.3381 1.47803 9.19347 1.00266 8 1.00266Z" fill="black"/>
</svg>
