<svg width="43" height="24" viewBox="0 0 43 24" fill="none" xmlns="http://www.w3.org/2000/svg">
<path fill-rule="evenodd" clip-rule="evenodd" d="M20.6811 23.9725H23.2157C23.2157 23.9725 23.9549 23.8669 24.3774 23.4445C24.747 23.0749 24.747 22.3356 24.747 22.3356C24.747 22.3356 24.6942 18.9562 26.2783 18.4282C27.8095 17.953 29.8161 21.702 31.9282 23.1277C33.5123 24.2365 34.7267 23.9725 34.7267 23.9725L40.3766 23.9197C40.3766 23.9197 43.3336 23.7613 41.9079 21.438C41.8023 21.2268 41.1159 19.6955 37.7365 16.5801C34.1987 13.3063 34.6739 13.8344 38.951 8.13165C41.5383 4.69946 42.5944 2.58734 42.2775 1.63689C41.9607 0.792043 40.0598 1.00326 40.0598 1.00326L33.7235 1.05606C33.7235 1.05606 33.2482 1.00326 32.8786 1.21447C32.4562 1.47848 32.245 1.95371 32.245 1.95371C32.245 1.95371 31.2417 4.64666 29.9217 6.91718C27.0703 11.7222 25.9614 11.9863 25.4862 11.6694C24.4302 10.983 24.6942 8.87089 24.6942 7.39241C24.6942 2.74575 25.3806 0.792043 23.3213 0.316817C22.6349 0.158408 22.1068 0.0528029 20.3643 0C18.0938 0 16.1929 0 15.084 0.528029C14.3448 0.89765 13.8168 1.68969 14.1336 1.68969C14.556 1.7425 15.5065 1.95371 15.9817 2.64015C16.6153 3.5378 16.6153 5.4915 16.6153 5.4915C16.6153 5.4915 16.9849 10.983 15.7177 11.6694C14.8728 12.1447 13.7112 11.1942 11.1766 6.81158C9.90935 4.59385 8.90609 2.11212 8.90609 2.11212C8.90609 2.11212 8.69488 1.63689 8.37807 1.42568C8.11405 1.21447 7.58602 1.05606 7.00519 1.05606L1.35528 1.10886C1.35528 1.10886 0.457625 1.10886 0.140808 1.53128C-0.17601 1.90091 0.140808 2.58734 0.140808 2.58734C0.140808 2.58734 4.89307 13.6232 10.2262 19.1675C15.1368 24.3421 20.6811 23.9725 20.6811 23.9725Z" fill="#F16B20"/>
</svg>
