<svg width="408" height="393" viewBox="0 0 408 393" fill="none" xmlns="http://www.w3.org/2000/svg">
<path d="M260.191 165.501C256.368 164.796 252.857 161.1 252.346 157.25L236.247 35.3242C235.736 31.4737 233.825 31.1212 231.968 34.535L173.249 142.661C171.392 146.074 166.789 148.272 162.967 147.567L41.9018 125.236C38.0795 124.531 37.147 126.241 39.8251 129.06L124.593 218.203C127.271 221.022 127.939 226.074 126.082 229.488L67.3652 337.607C65.5081 341.02 66.8506 342.433 70.3618 340.757L181.47 287.744C184.981 286.067 189.995 286.991 192.673 289.811L277.44 378.961C280.118 381.78 281.878 380.938 281.367 377.088L265.274 255.17C264.763 251.319 267.197 246.839 270.708 245.162L381.816 192.149C385.328 190.472 385.069 188.543 381.247 187.837L260.189 165.508L260.191 165.501Z" fill="#DADADA" fill-opacity="0.16"/>
</svg>
