<svg width="456" height="454" viewBox="0 0 456 454" fill="none" xmlns="http://www.w3.org/2000/svg">
<path d="M337.408 203.962C333.756 200.435 332.598 193.871 334.817 189.303L405.191 44.6835C407.41 40.1143 405.584 38.3516 401.102 40.736L259.235 116.332C254.752 118.716 248.157 117.793 244.505 114.267L128.82 2.57776C125.167 -0.948482 122.92 0.243824 123.802 5.25113L151.811 163.642C152.694 168.649 149.779 174.642 145.297 177.026L3.43665 252.616C-1.04585 255.001 -0.603126 257.51 4.42773 258.214L163.591 280.53C168.622 281.233 173.414 285.859 174.297 290.866L202.299 449.263C203.182 454.27 205.704 454.622 207.924 450.053L278.298 305.446C280.518 300.877 286.397 297.746 291.428 298.449L450.592 320.765C455.623 321.468 456.733 319.177 453.08 315.651L337.402 203.968L337.408 203.962Z" fill="#DADADA" fill-opacity="0.16"/>
</svg>
