<svg width="756" height="773" viewBox="0 0 756 773" fill="none" xmlns="http://www.w3.org/2000/svg">
<path d="M395.244 286.632C389.96 290.145 381.635 289.8 376.651 285.869L218.906 161.25C213.921 157.317 211.28 159.073 212.991 165.182L267.316 358.562C269.027 364.671 266.135 372.473 260.851 375.986L93.504 487.25C88.2206 490.763 89.0747 493.825 95.4251 494.089L296.324 502.332C302.674 502.596 309.212 507.758 310.923 513.867L365.243 707.237C366.954 713.346 370.137 713.478 372.343 707.527L442.203 519.264C444.408 513.312 451.339 508.704 457.689 508.968L658.594 517.221C664.945 517.484 666.049 514.5 661.065 510.567L503.335 385.952C498.35 382.019 496.101 374.006 498.307 368.053L568.166 179.791C570.371 173.839 567.871 171.871 562.588 175.384L395.25 286.642L395.244 286.632Z" fill="#DADADA" fill-opacity="0.16"/>
</svg>
