<svg width="677" height="652" viewBox="0 0 677 652" fill="none" xmlns="http://www.w3.org/2000/svg">
<path opacity="0.1" d="M408.515 212.118C404.593 214.722 398.411 214.465 394.71 211.55L277.574 119.155C273.873 116.239 271.912 117.54 273.183 122.069L313.54 265.425C314.811 269.954 312.664 275.737 308.742 278.34L184.503 360.8C180.58 363.404 181.215 365.674 185.93 365.87L335.093 372.003C339.808 372.199 344.663 376.027 345.934 380.555L386.287 523.904C387.558 528.433 389.921 528.531 391.559 524.12L443.407 384.571C445.044 380.159 450.189 376.744 454.904 376.94L604.072 383.08C608.787 383.276 609.607 381.064 605.906 378.148L488.781 285.755C485.08 282.839 483.409 276.898 485.046 272.486L536.894 132.937C538.531 128.525 536.674 127.066 532.752 129.67L408.52 212.125L408.515 212.118Z" fill="#FF9052"/>
<path opacity="0.1" d="M231.625 518.48C230.173 519.443 227.886 519.348 226.517 518.27L183.179 484.085C181.81 483.006 181.084 483.488 181.554 485.163L196.486 538.202C196.956 539.878 196.162 542.017 194.71 542.981L148.744 573.489C147.293 574.453 147.528 575.292 149.272 575.365L204.46 577.634C206.204 577.707 208.001 579.123 208.471 580.798L223.401 633.835C223.871 635.51 224.745 635.546 225.351 633.914L244.534 582.284C245.139 580.652 247.043 579.388 248.788 579.461L303.977 581.732C305.722 581.805 306.025 580.986 304.655 579.908L261.322 545.724C259.952 544.645 259.334 542.447 259.94 540.815L279.123 489.184C279.728 487.552 279.041 487.012 277.59 487.975L231.626 518.482L231.625 518.48Z" fill="#FF9052"/>
<path opacity="0.1" d="M115.625 155.48C114.173 156.443 111.886 156.348 110.517 155.27L67.1791 121.085C65.8096 120.006 65.0841 120.488 65.5545 122.163L80.4856 175.202C80.956 176.878 80.1617 179.017 78.7104 179.981L32.7443 210.489C31.293 211.453 31.5278 212.292 33.2723 212.365L88.46 214.634C90.2045 214.707 92.0005 216.123 92.4709 217.798L107.401 270.835C107.871 272.51 108.745 272.546 109.351 270.914L128.534 219.284C129.139 217.652 131.043 216.388 132.788 216.461L187.977 218.732C189.722 218.805 190.025 217.986 188.655 216.908L145.322 182.724C143.952 181.645 143.334 179.447 143.94 177.815L163.123 126.184C163.728 124.552 163.041 124.012 161.59 124.975L115.626 155.482L115.625 155.48Z" fill="#FF9052"/>
<path opacity="0.1" d="M514.546 489.95C513.937 490.355 512.976 490.315 512.402 489.862L494.206 475.509C493.631 475.056 493.326 475.259 493.524 475.962L499.793 498.231C499.99 498.935 499.657 499.833 499.047 500.237L479.748 513.047C479.139 513.451 479.237 513.804 479.97 513.834L503.141 514.787C503.873 514.817 504.627 515.412 504.825 516.115L511.093 538.383C511.291 539.087 511.658 539.102 511.912 538.417L519.966 516.739C520.22 516.054 521.02 515.523 521.752 515.554L544.924 516.507C545.656 516.538 545.784 516.194 545.209 515.741L527.015 501.389C526.44 500.936 526.18 500.013 526.434 499.328L534.488 477.65C534.743 476.965 534.454 476.738 533.845 477.143L514.547 489.951L514.546 489.95Z" fill="#FF9052"/>
</svg>
