<svg width="24" height="24" viewBox="0 0 24 24" fill="none" xmlns="http://www.w3.org/2000/svg">
<path d="M10.8117 1.26172C10.8117 0.985469 10.588 0.761719 10.3117 0.761719H1.26172C0.985469 0.761719 0.761719 0.985469 0.761719 1.26172V10.3117C0.761719 10.588 0.985469 10.8117 1.26172 10.8117H10.3117C10.588 10.8117 10.8117 10.588 10.8117 10.3117V1.26172ZM9.81172 9.81172H1.76172V1.76172H9.81172V9.81172Z" fill="#808080"/>
<path d="M23.2609 1.26172C23.2609 0.985469 23.0372 0.761719 22.7609 0.761719H13.7109C13.4347 0.761719 13.2109 0.985469 13.2109 1.26172V10.3117C13.2109 10.588 13.4347 10.8117 13.7109 10.8117H22.7609C23.0372 10.8117 23.2609 10.588 23.2609 10.3117V1.26172ZM22.2609 9.81172H14.2109V1.76172H22.2609V9.81172Z" fill="#808080"/>
<path d="M10.8117 13.7109C10.8117 13.4347 10.588 13.2109 10.3117 13.2109H1.26172C0.985469 13.2109 0.761719 13.4347 0.761719 13.7109V22.7609C0.761719 23.0372 0.985469 23.2609 1.26172 23.2609H10.3117C10.588 23.2609 10.8117 23.0372 10.8117 22.7609V13.7109ZM9.81172 22.2109H1.76172V14.2109H9.81172V22.2109Z" fill="#808080"/>
<path d="M23.26 13.71C23.26 13.4337 23.0362 13.21 22.76 13.21H13.71C13.4337 13.21 13.21 13.4337 13.21 13.71V22.76C13.21 23.0362 13.4337 23.26 13.71 23.26H22.76C23.0362 23.26 23.26 23.0362 23.26 22.76V13.71ZM22.26 22.21H14.21V14.21H22.26V22.21Z" fill="#808080"/>
</svg>
