<svg width="24" height="24" viewBox="0 0 24 24" fill="none" xmlns="http://www.w3.org/2000/svg">
<g opacity="0.5">
<path d="M7 1.29851C7 1.13358 6.86642 1 6.70149 1H1.29851C1.13358 1 1 1.13358 1 1.29851V6.70149C1 6.86642 1.13358 7 1.29851 7H6.70149C6.86642 7 7 6.86642 7 6.70149V1.29851ZM6.40299 6.40299H1.59701V1.59701H6.40299V6.40299Z" fill="black"/>
<path d="M7 9.29851C7 9.13358 6.86642 9 6.70149 9H1.29851C1.13358 9 1 9.13358 1 9.29851V14.7015C1 14.8664 1.13358 15 1.29851 15H6.70149C6.86642 15 7 14.8664 7 14.7015V9.29851ZM6.40299 14.403H1.59701V9.59701H6.40299V14.403Z" fill="black"/>
<path d="M7 17.2985C7 17.1336 6.86642 17 6.70149 17H1.29851C1.13358 17 1 17.1336 1 17.2985V22.7015C1 22.8664 1.13358 23 1.29851 23H6.70149C6.86642 23 7 22.8664 7 22.7015V17.2985ZM6.40299 22.403H1.59701V17.597H6.40299V22.403Z" fill="black"/>
<path d="M23 1.29851C23 1.13358 22.8664 1 22.7015 1H17.2985C17.1336 1 17 1.13358 17 1.29851V6.70149C17 6.86642 17.1336 7 17.2985 7H22.7015C22.8664 7 23 6.86642 23 6.70149V1.29851ZM22.403 6.40299H17.597V1.59701H22.403V6.40299Z" fill="black"/>
<path d="M23 9.29851C23 9.13358 22.8664 9 22.7015 9H17.2985C17.1336 9 17 9.13358 17 9.29851V14.7015C17 14.8664 17.1336 15 17.2985 15H22.7015C22.8664 15 23 14.8664 23 14.7015V9.29851ZM22.403 14.403H17.597V9.59701H22.403V14.403Z" fill="black"/>
<path d="M23 17.2985C23 17.1336 22.8664 17 22.7015 17H17.2985C17.1336 17 17 17.1336 17 17.2985V22.7015C17 22.8664 17.1336 23 17.2985 23H22.7015C22.8664 23 23 22.8664 23 22.7015V17.2985ZM22.403 22.403H17.597V17.597H22.403V22.403Z" fill="black"/>
<path d="M15 1.29851C15 1.13358 14.8664 1 14.7015 1H9.29851C9.13358 1 9 1.13358 9 1.29851V6.70149C9 6.86642 9.13358 7 9.29851 7H14.7015C14.8664 7 15 6.86642 15 6.70149V1.29851ZM14.403 6.40299H9.59701V1.59701H14.403V6.40299Z" fill="black"/>
<path d="M15 9.29851C15 9.13358 14.8664 9 14.7015 9H9.29851C9.13358 9 9 9.13358 9 9.29851V14.7015C9 14.8664 9.13358 15 9.29851 15H14.7015C14.8664 15 15 14.8664 15 14.7015V9.29851ZM14.403 14.403H9.59701V9.59701H14.403V14.403Z" fill="black"/>
<path d="M15 17.2985C15 17.1336 14.8664 17 14.7015 17H9.29851C9.13358 17 9 17.1336 9 17.2985V22.7015C9 22.8664 9.13358 23 9.29851 23H14.7015C14.8664 23 15 22.8664 15 22.7015V17.2985ZM14.403 22.403H9.59701V17.597H14.403V22.403Z" fill="black"/>
</g>
</svg>
