<svg width="703" height="716" viewBox="0 0 703 716" fill="none" xmlns="http://www.w3.org/2000/svg">
<path d="M460.33 335.49C454.911 332.75 451.263 325.654 452.178 319.646L481.306 129.406C482.221 123.397 479.512 122.027 475.239 126.339L340.029 262.945C335.756 267.256 327.898 268.534 322.479 265.794L150.825 179.006C145.405 176.266 143.261 178.425 146.043 183.838L234.129 355.029C236.91 360.442 235.705 368.325 231.432 372.636L96.2285 509.233C91.9549 513.545 93.3494 516.257 99.343 515.283L288.984 484.508C294.978 483.532 302.087 487.126 304.869 492.539L392.95 663.74C395.732 669.153 398.737 668.663 399.653 662.654L428.785 472.428C429.7 466.419 435.304 460.76 441.299 459.784L630.939 429.01C636.934 428.034 637.389 425.022 631.97 422.282L460.325 335.5L460.33 335.49Z" fill="#DADADA" fill-opacity="0.16"/>
</svg>
