<svg width="427" height="432" viewBox="0 0 427 432" fill="none" xmlns="http://www.w3.org/2000/svg">
<path d="M207.779 158.695C205.836 161.603 201.526 163.196 198.155 162.255L91.415 132.395C88.0431 131.454 87.0719 132.907 89.2401 135.65L157.952 222.435C160.12 225.178 160.305 229.759 158.362 232.667L96.8267 324.778C94.8839 327.686 95.9689 329.062 99.2567 327.847L203.244 289.373C206.532 288.159 210.955 289.395 213.123 292.138L281.83 378.919C283.998 381.661 285.646 381.052 285.505 377.558L281.078 267.002C280.936 263.507 283.484 259.692 286.772 258.478L390.765 220.007C394.053 218.793 393.981 217.041 390.609 216.1L283.878 186.237C280.506 185.297 277.66 181.7 277.518 178.205L273.091 67.6488C272.949 64.1541 271.259 63.6845 269.316 66.5926L207.784 158.698L207.779 158.695Z" fill="#DADADA" fill-opacity="0.16"/>
</svg>
