<svg width="24" height="24" viewBox="0 0 24 24" fill="none" xmlns="http://www.w3.org/2000/svg">
<path d="M17.5034 0H6.49658C2.91431 0 0 2.91431 0 6.49658V17.5036C0 21.0857 2.91431 24 6.49658 24H17.5036C21.0857 24 24 21.0857 24 17.5036V6.49658C24 2.91431 21.0857 0 17.5034 0V0ZM12 18.5623C8.38147 18.5623 5.43768 15.6185 5.43768 12C5.43768 8.38147 8.38147 5.43768 12 5.43768C15.6185 5.43768 18.5623 8.38147 18.5623 12C18.5623 15.6185 15.6185 18.5623 12 18.5623ZM18.7192 6.98529C17.6499 6.98529 16.7802 6.11554 16.7802 5.0462C16.7802 3.97687 17.6499 3.10693 18.7192 3.10693C19.7886 3.10693 20.6585 3.97687 20.6585 5.0462C20.6585 6.11554 19.7886 6.98529 18.7192 6.98529Z" fill="#F16B20"/>
<path d="M11.9991 6.84375C9.15656 6.84375 6.84375 9.15637 6.84375 11.9991C6.84375 14.8416 9.15656 17.1544 11.9991 17.1544C14.8418 17.1544 17.1544 14.8416 17.1544 11.9991C17.1544 9.15637 14.8418 6.84375 11.9991 6.84375Z" fill="#F16B20"/>
<path d="M18.7196 4.51562C18.4263 4.51562 18.1875 4.75439 18.1875 5.04773C18.1875 5.34106 18.4263 5.57983 18.7196 5.57983C19.0131 5.57983 19.2519 5.34125 19.2519 5.04773C19.2519 4.75421 19.0131 4.51562 18.7196 4.51562Z" fill="#F16B20"/>
</svg>
