<svg width="24" height="24" viewBox="0 0 24 24" fill="none" xmlns="http://www.w3.org/2000/svg">
<path d="M12.1236 5.68115C8.71675 5.68115 5.95703 8.42183 5.95703 11.8096C5.95703 13.1419 6.39478 14.398 7.13705 15.4068L6.35671 17.6907L8.73578 16.9294C9.70644 17.5765 10.8865 17.9381 12.1426 17.9381C15.5494 17.9381 18.3282 15.1974 18.3282 11.8096C18.3091 8.42183 15.5304 5.68115 12.1236 5.68115ZM15.7397 14.3409C15.5875 14.7597 14.8452 15.1593 14.5217 15.1974C14.1981 15.2355 14.1981 15.4639 12.352 14.7597C10.5248 14.0364 9.36385 12.1903 9.26869 12.057C9.17353 11.9429 8.52642 11.0864 8.52642 10.2109C8.52642 9.3354 8.9832 8.89765 9.15449 8.72635C9.32579 8.55506 9.51611 8.49796 9.63031 8.49796C9.7445 8.49796 9.87773 8.517 9.97289 8.517C10.0871 8.517 10.2203 8.4599 10.3726 8.82152C10.5248 9.18313 10.8865 10.0586 10.9245 10.1538C10.9626 10.249 11.0006 10.3441 10.9436 10.4583C10.8865 10.5725 10.8484 10.6486 10.7723 10.7628C10.6771 10.858 10.5819 10.9912 10.5058 11.0674C10.4106 11.1625 10.3155 11.2577 10.4297 11.429C10.5439 11.6003 10.9055 12.1903 11.4384 12.6661C12.1236 13.2751 12.7136 13.4655 12.8849 13.5606C13.0562 13.6558 13.1704 13.6367 13.2655 13.5225C13.3797 13.4084 13.7223 13.0087 13.8365 12.8183C13.9507 12.6471 14.0839 12.6661 14.2362 12.7232C14.4075 12.7803 15.283 13.218 15.4733 13.3132C15.6446 13.4084 15.7778 13.4464 15.8159 13.5225C15.873 13.5606 15.873 13.9222 15.7397 14.3409Z" fill="#F16B20"/>
<path d="M17.9667 0.00952148H6.01427C2.70262 0.00952148 0 2.71214 0 6.0238V17.9952C0 21.2879 2.70262 23.9905 6.01427 23.9905H17.9857C21.2974 23.9905 24 21.2879 24 17.9762V6.0238C23.981 2.71214 21.2784 0.00952148 17.9667 0.00952148ZM12.1237 19.0991C10.8295 19.0991 9.63045 18.7756 8.56463 18.1856L4.49167 19.4798L5.82395 15.5781C5.15781 14.4742 4.77716 13.18 4.77716 11.8097C4.77716 7.77479 8.06979 4.52023 12.1237 4.52023C16.1776 4.52023 19.4703 7.77479 19.4703 11.8097C19.4703 15.8446 16.1776 19.0991 12.1237 19.0991Z" fill="#F16B20"/>
</svg>
