<svg width="1152" height="611" viewBox="0 0 1152 611" fill="none" xmlns="http://www.w3.org/2000/svg">
<g opacity="0.1">
<path d="M333.419 226.307C329.234 229.084 322.639 228.81 318.691 225.701L193.72 127.125C189.771 124.014 187.679 125.402 189.035 130.234L232.091 283.179C233.447 288.011 231.157 294.18 226.972 296.958L94.4224 384.934C90.2376 387.711 90.9145 390.133 95.945 390.343L255.086 396.886C260.116 397.095 265.296 401.179 266.652 406.01L309.704 558.947C311.06 563.779 313.581 563.884 315.328 559.177L370.644 410.294C372.391 405.587 377.88 401.943 382.911 402.153L542.057 408.703C547.087 408.913 547.962 406.552 544.013 403.442L419.054 304.868C415.105 301.757 413.323 295.42 415.069 290.712L470.385 141.829C472.131 137.122 470.151 135.566 465.966 138.343L333.424 226.314L333.419 226.307Z" fill="#FF9052"/>
<path d="M1072.75 161.455C1073.21 159.86 1074.93 158.517 1076.59 158.454L1129.18 156.515C1130.84 156.453 1131.07 155.655 1129.69 154.729L1086.07 125.443C1084.7 124.517 1083.95 122.473 1084.41 120.878L1098.93 70.3513C1099.39 68.756 1098.7 68.2912 1097.39 69.3155L1055.92 101.74C1054.6 102.764 1052.42 102.845 1051.05 101.919L1007.43 72.6338C1006.05 71.7078 1005.4 72.2213 1005.97 73.7801L1023.95 123.105C1024.52 124.664 1023.91 126.757 1022.6 127.781L981.129 160.205C979.817 161.229 980.103 162.01 981.764 161.948L1034.35 160.011C1036.01 159.949 1037.82 161.163 1038.39 162.721L1056.37 212.046C1056.94 213.605 1057.77 213.573 1058.23 211.978L1072.75 161.454L1072.75 161.455Z" fill="#FF9052"/>
<path d="M1027.66 286.726C1027.97 285.619 1029.17 284.688 1030.32 284.644L1066.79 283.3C1067.94 283.256 1068.1 282.703 1067.15 282.061L1036.9 261.75C1035.94 261.107 1035.42 259.69 1035.74 258.584L1045.81 223.541C1046.13 222.435 1045.65 222.112 1044.74 222.823L1015.98 245.31C1015.07 246.021 1013.56 246.077 1012.6 245.435L982.355 225.124C981.4 224.482 980.944 224.838 981.338 225.919L993.808 260.128C994.203 261.209 993.786 262.661 992.876 263.371L964.112 285.858C963.203 286.569 963.401 287.111 964.553 287.068L1001.03 285.724C1002.18 285.681 1003.43 286.523 1003.83 287.604L1016.3 321.813C1016.69 322.894 1017.27 322.872 1017.59 321.766L1027.65 286.725L1027.66 286.726Z" fill="#FF9052"/>
<path d="M1050.18 549.068C1050.29 548.669 1050.72 548.334 1051.13 548.318L1064.27 547.834C1064.69 547.819 1064.74 547.619 1064.4 547.388L1053.5 540.073C1053.16 539.842 1052.97 539.331 1053.09 538.933L1056.71 526.313C1056.83 525.914 1056.66 525.798 1056.33 526.054L1045.97 534.153C1045.64 534.409 1045.1 534.429 1044.76 534.198L1033.86 526.883C1033.52 526.652 1033.35 526.78 1033.5 527.169L1037.99 539.489C1038.13 539.879 1037.98 540.401 1037.65 540.657L1027.29 548.756C1026.96 549.011 1027.04 549.207 1027.45 549.191L1040.59 548.707C1041 548.692 1041.45 548.995 1041.59 549.384L1046.08 561.704C1046.23 562.094 1046.43 562.086 1046.55 561.687L1050.18 549.068L1050.18 549.068Z" fill="#FF9052"/>
<path d="M1004.62 552.119C1004.68 551.918 1004.89 551.75 1005.1 551.742L1011.71 551.498C1011.92 551.49 1011.95 551.39 1011.77 551.274L1006.29 547.594C1006.12 547.478 1006.03 547.221 1006.08 547.02L1007.91 540.672C1007.97 540.471 1007.88 540.413 1007.72 540.541L1002.5 544.616C1002.34 544.744 1002.07 544.754 1001.89 544.638L996.412 540.958C996.239 540.842 996.157 540.906 996.228 541.102L998.487 547.3C998.559 547.496 998.483 547.759 998.318 547.888L993.107 551.962C992.942 552.09 992.978 552.189 993.187 552.181L999.795 551.937C1000 551.93 1000.23 552.082 1000.3 552.278L1002.56 558.476C1002.63 558.672 1002.74 558.668 1002.8 558.467L1004.62 552.119L1004.62 552.119Z" fill="#FF9052"/>
</g>
</svg>
